<svg width="35" height="35" fill="none" xmlns="http://www.w3.org/2000/svg"><path opacity=".7" d="M17.5 10.313c-5.16 0-9.344 1.77-9.344 3.953v6.468c0 2.184 4.183 3.953 9.344 3.953 5.16 0 9.344-1.77 9.344-3.953v-6.468c0-2.184-4.183-3.954-9.344-3.954zm0 1.437c.642 0 1.246.029 1.813.08.119.01.228.024.343.036v.315c0 .949-.97 1.725-2.156 1.725-1.186 0-2.156-.776-2.156-1.725v-.315a20.01 20.01 0 012.156-.116zm-2.231.125c-.24.025-.47.057-.697.091.098-.015.19-.033.292-.046.13-.018.27-.03.405-.045zm4.462 0c.135.014.275.027.405.045.101.014.194.031.292.046a15.135 15.135 0 00-.697-.09zm-5.448.137c-.127.021-.247.046-.368.07.065-.012.117-.03.184-.042l.183-.028zm6.435 0l.183.028c.067.013.12.03.184.043-.121-.025-.241-.05-.367-.072zm-7.157.152l.748 1.297c.316.532.395 1.157.237 1.761a2.343 2.343 0 01-.788 1.19c-2.712-.56-4.164-1.622-4.164-2.146a.4.4 0 01.032-.15c.22-.542 1.586-1.432 3.935-1.952zm7.878 0c2.58.57 3.967 1.59 3.967 2.102 0 .524-1.453 1.586-4.165 2.146a2.314 2.314 0 01-.788-1.19 2.314 2.314 0 01.23-1.761l.756-1.297zm-3.939 3.18c.942 0 1.725.56 1.998 1.337a19.617 19.617 0 01-1.998.1c-1.023 0-1.948-.073-2.782-.192.255.036.513.067.784.09.273-.775 1.056-1.335 1.998-1.335zm-7.906 1.022c1.653 1.112 4.571 1.853 7.906 1.853s6.253-.741 7.906-1.853v4.368c0 .73-2.77 2.516-7.906 2.516-5.136 0-7.906-1.785-7.906-2.516v-4.368z" fill="#fff"/></svg>