<svg width="32" height="32" fill="none" xmlns="http://www.w3.org/2000/svg"><path d="M16 27.433c-.178 0-.344-.028-.5-.084-.155-.055-.3-.15-.433-.283l-3.5-3.5a1.223 1.223 0 01-.367-.9c0-.355.134-.666.4-.933.245-.244.556-.367.934-.367.377 0 .688.123.933.367l1.2 1.2V9.066L13.434 10.3a1.223 1.223 0 01-.9.366 1.28 1.28 0 01-.934-.4c-.244-.244-.367-.555-.367-.933s.123-.689.367-.933l3.467-3.467c.133-.133.278-.228.433-.284.156-.055.322-.083.5-.083s.345.028.5.083c.156.056.3.15.433.284l3.5 3.5c.245.245.367.545.367.9 0 .356-.133.667-.4.933-.244.245-.555.367-.933.367s-.689-.122-.933-.367l-1.2-1.2v13.867l1.233-1.233a1.22 1.22 0 01.9-.367c.355 0 .667.133.933.4.245.244.367.556.367.933 0 .378-.122.69-.367.934l-3.466 3.466a1.162 1.162 0 01-.434.283 1.465 1.465 0 01-.5.084z" fill="#fff" opacity=".7"/></svg>