<svg width="35" height="35" fill="none" xmlns="http://www.w3.org/2000/svg"><path d="M21.125 23.541c-1.47 0-2.755-.458-3.852-1.373a5.928 5.928 0 01-2.07-3.46h-7.37v-2.417h7.37c.102-.463.238-.896.41-1.299a4.51 4.51 0 01.678-1.117H10.25v-2.417h10.875c1.671 0 3.096.589 4.275 1.767 1.178 1.178 1.766 2.603 1.766 4.275 0 1.671-.588 3.096-1.766 4.273-1.179 1.18-2.604 1.768-4.275 1.768zm0-2.416c1.007 0 1.863-.353 2.567-1.058.705-.704 1.058-1.56 1.058-2.567 0-1.007-.353-1.863-1.058-2.568-.704-.705-1.56-1.057-2.567-1.057-1.007 0-1.863.352-2.568 1.057-.705.705-1.057 1.56-1.057 2.568 0 1.007.352 1.863 1.057 2.567.705.705 1.56 1.058 2.568 1.058zm-9.667 2.416v-2.416h3.625v2.416h-3.625z" fill="#fff" opacity=".7"/></svg>