<svg width="16" height="16" fill="none" xmlns="http://www.w3.org/2000/svg"><path d="M13.033 7.331a5.43 5.43 0 00-1.295-1.8l-.455-.417a.126.126 0 00-.203.052l-.203.582c-.127.366-.36.74-.69 1.107a.098.098 0 01-.064.03.086.086 0 01-.067-.023.092.092 0 01-.031-.075c.058-.94-.223-2.001-.84-3.156-.508-.96-1.216-1.708-2.1-2.23l-.646-.38a.125.125 0 00-.187.115l.034.75c.023.512-.036.966-.177 1.342-.171.461-.418.89-.734 1.273a4.62 4.62 0 01-.742.72 5.51 5.51 0 00-1.567 1.9 5.434 5.434 0 00-.133 4.535 5.49 5.49 0 002.928 2.9A5.497 5.497 0 008 14.984c.742 0 1.46-.143 2.14-.426a5.447 5.447 0 001.747-1.167A5.408 5.408 0 0013.5 9.533c0-.763-.156-1.503-.467-2.202z" fill="#EF4444"/></svg>