<svg width="53" height="53" fill="none" xmlns="http://www.w3.org/2000/svg"><path d="M44.719 36.672V16.328a6.611 6.611 0 10-8.046-8.046H16.327a6.612 6.612 0 10-8.046 8.046v20.345a6.612 6.612 0 108.046 8.047h20.346a6.612 6.612 0 108.046-8.047zM43.062 6.625a3.312 3.312 0 110 6.625 3.312 3.312 0 010-6.625zM6.626 9.937a3.313 3.313 0 116.625 0 3.313 3.313 0 01-6.625 0zm3.312 36.438a3.312 3.312 0 110-6.625 3.312 3.312 0 010 6.625zm26.736-4.969H16.327a6.616 6.616 0 00-4.733-4.733V16.326a6.616 6.616 0 004.733-4.734h20.346a6.614 6.614 0 004.733 4.734v20.345a6.613 6.613 0 00-4.733 4.734zm6.39 4.969a3.313 3.313 0 110-6.626 3.313 3.313 0 010 6.626z" fill="#fff"/></svg>