<svg width="54" height="54" fill="none" xmlns="http://www.w3.org/2000/svg"><path d="M24.581 28.688L27 26.83l2.363 1.857c.412.337.862.347 1.35.029.487-.318.637-.74.45-1.267l-.957-3.037 2.7-2.138c.413-.337.535-.76.367-1.267-.168-.507-.515-.76-1.042-.758h-3.206l-.956-2.981c-.188-.525-.544-.788-1.069-.788-.525 0-.881.263-1.069.788l-.956 2.981h-3.206c-.525 0-.881.262-1.069.788-.188.524-.075.937.338 1.237l2.7 2.138-.957 3.037c-.187.525-.046.947.423 1.267.47.32.929.31 1.377-.03zm-8.1 22.05c-.75.262-1.435.168-2.054-.282-.62-.45-.928-1.05-.927-1.8V34.37a17.342 17.342 0 01-3.319-5.4C9.394 26.944 9 24.788 9 22.5c0-5.025 1.744-9.281 5.231-12.769C17.72 6.244 21.975 4.5 27 4.5s9.281 1.744 12.769 5.231C43.256 13.22 45 17.475 45 22.5c0 2.288-.394 4.444-1.181 6.469a17.344 17.344 0 01-3.319 5.4v14.287c0 .75-.31 1.35-.93 1.8-.619.45-1.303.544-2.051.281L27 47.25l-10.519 3.487zM27 36c3.75 0 6.938-1.313 9.563-3.938C39.187 29.439 40.5 26.25 40.5 22.5c0-3.75-1.313-6.938-3.938-9.563C33.938 10.313 30.75 9 27 9c-3.75 0-6.938 1.313-9.563 3.938C14.813 15.562 13.5 18.75 13.5 22.5c0 3.75 1.313 6.938 3.938 9.563C20.063 34.687 23.25 36 27 36zm-9 9.056l9-2.306 9 2.306v-6.975a18.993 18.993 0 01-4.248 1.773c-1.52.432-3.104.648-4.752.646a17.3 17.3 0 01-4.754-.648A19.007 19.007 0 0118 38.082v6.974z" fill="#000"/></svg>