<svg width="57" height="57" fill="none" xmlns="http://www.w3.org/2000/svg"><path d="M12.469 17.72v32.155H44.53V17.72L30.755 6.448a3.563 3.563 0 00-4.51 0L12.469 17.72zM33.01 3.69l14.428 11.807a1.782 1.782 0 01.656 1.378v34.781a1.781 1.781 0 01-1.782 1.782H10.688a1.781 1.781 0 01-1.782-1.782v-34.78a1.781 1.781 0 01.652-1.38L23.986 3.692a7.125 7.125 0 019.024 0z" fill="#fff"/><path d="M28.5 24.938a3.563 3.563 0 100-7.126 3.563 3.563 0 000 7.125zm0 3.562a7.125 7.125 0 110-14.25 7.125 7.125 0 010 14.25z" fill="#fff"/></svg>