<svg width="64" height="64" fill="none" xmlns="http://www.w3.org/2000/svg"><path d="M32 21.667v20.8l8.4 5.133-2.2-9.6 7.4-6.4-9.733-.867-3.866-9.066zm0 27.066L20.935 55.4c-.489.311-1 .445-1.533.4-.534-.044-1-.222-1.4-.533a3.2 3.2 0 01-.934-1.168c-.222-.468-.266-.99-.133-1.566l2.933-12.6-9.8-8.466c-.444-.4-.721-.856-.831-1.368a2.672 2.672 0 01.098-1.499c.178-.489.445-.889.8-1.2.356-.31.845-.51 1.467-.6l12.933-1.133 5-11.867c.222-.533.567-.933 1.035-1.2.467-.266.945-.4 1.432-.4.489 0 .966.134 1.432.4.466.267.81.667 1.035 1.2l5 11.867L52.4 26.8c.622.09 1.111.29 1.466.6.356.311.623.711.8 1.2.178.49.212.99.102 1.502-.11.511-.389.967-.835 1.365l-9.8 8.467 2.934 12.6c.133.577.088 1.1-.134 1.568A3.17 3.17 0 0146 55.267c-.4.311-.867.489-1.4.533-.533.045-1.045-.089-1.533-.4L32 48.734z" fill="#000"/></svg>