<svg width="28" height="28" fill="none" xmlns="http://www.w3.org/2000/svg"><path d="M23.4 4.547a13.088 13.088 0 00-9.347-3.88C6.773.667.84 6.6.84 13.88c0 2.333.613 4.6 1.76 6.6L.733 27.333l7-1.84a13.216 13.216 0 006.32 1.614c7.28 0 13.214-5.934 13.214-13.214A13.13 13.13 0 0023.4 4.547zm-9.347 20.32a11.02 11.02 0 01-5.6-1.534l-.4-.24-4.16 1.094L5 20.133l-.267-.413a11.019 11.019 0 01-1.68-5.84c0-6.053 4.934-10.987 10.987-10.987A10.87 10.87 0 0121.8 6.12a10.91 10.91 0 013.213 7.773c.027 6.054-4.906 10.974-10.96 10.974zm6.027-8.214c-.333-.16-1.96-.96-2.253-1.08-.307-.106-.52-.16-.747.16-.227.334-.853 1.08-1.04 1.294-.187.226-.387.253-.72.08-.333-.16-1.4-.52-2.653-1.64-.987-.88-1.64-1.96-1.84-2.294-.187-.333-.027-.506.146-.68.147-.146.334-.386.494-.573.16-.187.226-.333.333-.547.107-.226.053-.413-.027-.573-.08-.16-.746-1.787-1.013-2.453-.267-.64-.547-.56-.747-.574h-.64c-.226 0-.573.08-.88.414-.293.333-1.146 1.133-1.146 2.76 0 1.626 1.186 3.2 1.346 3.413.16.227 2.334 3.56 5.64 4.987.787.346 1.4.546 1.88.693.787.253 1.507.213 2.08.133.64-.093 1.96-.8 2.227-1.573.28-.773.28-1.427.187-1.573-.094-.147-.294-.214-.627-.374z" fill="#333"/></svg>