<svg width="45" height="45" fill="none" xmlns="http://www.w3.org/2000/svg"><circle opacity=".7" cx="22.5" cy="22.5" r="21.5" stroke="#333" stroke-width="2"/><path opacity=".7" fill-rule="evenodd" clip-rule="evenodd" d="M32.48 26.757a9.968 9.968 0 00-1.858-2.594c-.253-.285-.517-.56-.792-.822l-.033-.033c-.103-.099-.204-.2-.303-.302a26.004 26.004 0 002.634-4.582l.029-.065.02-.068c.095-.317.203-.921-.181-1.467-.4-.564-1.037-.665-1.465-.665h-1.966a1.953 1.953 0 00-1.917 1.262 15.317 15.317 0 01-1.58 2.862v-2.304c0-.298-.028-.796-.347-1.216-.382-.505-.934-.604-1.317-.604h-3.12a1.586 1.586 0 00-1.62 1.472l-.002.039v.04c0 .424.168.737.303.934.06.088.124.169.165.22l.01.01c.043.055.072.09.1.131.078.103.187.264.219.68v1.288a17.312 17.312 0 01-1.533-3.318l-.007-.02-.007-.018c-.106-.279-.277-.685-.62-.995-.398-.363-.87-.463-1.3-.463h-1.995c-.435 0-.96.101-1.35.513-.385.406-.428.893-.428 1.15v.117l.024.114a17.002 17.002 0 003.326 7.018 8.882 8.882 0 006.906 4.105l.036.003h.037c.635 0 1.298-.055 1.796-.387.67-.448.724-1.135.724-1.478v-.996c.172.14.386.328.648.58.316.316.568.591.784.83l.116.129c.168.187.333.372.484.523.189.19.422.399.715.554.317.167.65.243 1.004.243h1.996c.421 0 1.024-.1 1.448-.591.462-.536.427-1.193.282-1.665l-.026-.085-.04-.08zm-5.006.092c-.27-.303-.55-.599-.837-.887l-.003-.002c-1.187-1.145-1.74-1.344-2.133-1.344-.209 0-.44.023-.589.21a.678.678 0 00-.128.305 2.15 2.15 0 00-.028.389v1.794c0 .223-.037.317-.14.385-.138.092-.43.166-1.06.166a7.568 7.568 0 01-5.908-3.545l-.007-.012-.009-.01a15.69 15.69 0 01-3.1-6.497c.003-.114.027-.183.068-.225.04-.044.141-.105.397-.105h1.995c.221 0 .337.05.42.124.093.085.175.23.273.487.49 1.44 1.151 2.788 1.779 3.777.313.496.62.908.9 1.2.138.144.274.265.404.35a.779.779 0 00.415.149.634.634 0 00.254-.047.458.458 0 00.218-.203c.09-.164.116-.407.116-.724v-2.951c-.046-.716-.262-1.12-.473-1.406a4.766 4.766 0 00-.13-.169l-.012-.014a2.382 2.382 0 01-.107-.14.342.342 0 01-.074-.187.274.274 0 01.283-.247h3.146c.18 0 .24.044.271.085.044.057.08.175.08.424v3.962c0 .47.218.789.533.789.362 0 .623-.22 1.08-.676l.008-.01.007-.007a16.63 16.63 0 002.485-4.132l.004-.01a.64.64 0 01.647-.425h2.013c.273 0 .362.07.392.111.03.044.052.138 0 .322a24.682 24.682 0 01-2.65 4.55l-.008.01c-.1.155-.211.326-.227.522-.018.212.073.404.233.61.117.172.357.407.602.646l.022.023c.256.25.533.521.755.784l.006.006.007.007a8.653 8.653 0 011.631 2.263c.067.227.027.345-.026.405-.06.07-.196.136-.453.136h-1.997a.796.796 0 01-.39-.092 1.713 1.713 0 01-.398-.319c-.125-.125-.26-.276-.427-.461l-.129-.143z" fill="#333"/></svg>