<svg width="90" height="90" fill="none" xmlns="http://www.w3.org/2000/svg"><path d="M65.512 78.525c6.855 0 12.413-5.557 12.413-12.413 0-6.855-5.558-12.412-12.413-12.412S53.1 59.257 53.1 66.112c0 6.856 5.557 12.413 12.412 12.413zM74.4 75l5.325 5.325" stroke="#333" stroke-width="3" stroke-linecap="round" stroke-linejoin="round"/><path d="M49.238 82.5H25.275a15 15 0 01-15-15V32.812a15 15 0 0115-15h37.5a15 15 0 0115 15v15m-48.75-35.624v11.25m33.75-11.25v11.25m-52.5 13.125h67.5M28.875 52.5v.004m15-.004v.004m-15 14.996v.004" stroke="#333" stroke-width="3" stroke-linecap="round" stroke-linejoin="round"/></svg>