<svg width="90" height="90" fill="none" xmlns="http://www.w3.org/2000/svg"><path d="M78.75 35.625v30a7.5 7.5 0 01-7.5 7.5h-52.5a7.5 7.5 0 01-7.5-7.5v-30a7.5 7.5 0 017.5-7.5h13.125a1.875 1.875 0 001.875-1.875v-5.625a3.75 3.75 0 013.75-3.75h15a3.75 3.75 0 013.75 3.75v5.625a1.875 1.875 0 001.875 1.875H71.25a7.5 7.5 0 017.5 7.5z" stroke="#333" stroke-width="3" stroke-linecap="round" stroke-linejoin="round"/><path d="M45 61.875c6.213 0 11.25-5.037 11.25-11.25S51.213 39.375 45 39.375s-11.25 5.037-11.25 11.25 5.037 11.25 11.25 11.25z" stroke="#333" stroke-width="3" stroke-linecap="round" stroke-linejoin="round"/></svg>