<svg width="90" height="90" fill="none" xmlns="http://www.w3.org/2000/svg"><path d="M67.5 39.038V63.75A11.25 11.25 0 0156.25 75h-22.5A11.25 11.25 0 0122.5 63.75v-37.5A11.25 11.25 0 0133.75 15h9.712a3.75 3.75 0 012.625 1.087l20.325 20.326a3.75 3.75 0 011.088 2.625z" stroke="#333" stroke-width="3" stroke-miterlimit="10" stroke-linecap="round"/><path d="M45 16.8v16.95a3.75 3.75 0 003.75 3.75H65.7a.75.75 0 00.525-1.275l-19.95-19.95A.75.75 0 0045 16.8zM33.75 63.75v-15m11.25 15V52.5m11.25 11.25v-7.5" stroke="#333" stroke-width="3" stroke-linecap="round" stroke-linejoin="round"/></svg>