<svg width="90" height="90" fill="none" xmlns="http://www.w3.org/2000/svg"><path d="M63.75 33.75h-37.5C20.037 33.75 15 38.787 15 45v22.5c0 6.213 5.037 11.25 11.25 11.25h37.5C69.963 78.75 75 73.713 75 67.5V45c0-6.213-5.037-11.25-11.25-11.25zm-7.5-11.25v-5.1a6.187 6.187 0 00-6.15-6.15H39.9a6.187 6.187 0 00-6.15 6.15v16.35h22.5" stroke="#333" stroke-width="3" stroke-linecap="round" stroke-linejoin="round"/><path d="M45 63.75a7.5 7.5 0 100-15 7.5 7.5 0 000 15z" stroke="#333" stroke-width="3" stroke-linecap="round" stroke-linejoin="round"/></svg>