<svg width="98" height="97" fill="none" xmlns="http://www.w3.org/2000/svg"><path opacity=".7" d="M97 48.5C97 74.724 75.52 96 49 96S1 74.724 1 48.5 22.48 1 49 1s48 21.276 48 47.5z" stroke="#fff" stroke-width="2"/><path fill-rule="evenodd" clip-rule="evenodd" d="M69.884 57.622a21.363 21.363 0 00-3.98-5.558 29.085 29.085 0 00-1.697-1.762l-.071-.07c-.22-.212-.436-.428-.65-.646a55.727 55.727 0 005.645-9.82l.061-.139.044-.146c.204-.68.436-1.974-.389-3.144-.854-1.208-2.221-1.425-3.138-1.425h-4.213a4.185 4.185 0 00-4.107 2.704 32.824 32.824 0 01-3.386 6.133v-4.937c0-.638-.06-1.706-.744-2.606-.818-1.08-2-1.294-2.822-1.294H43.75a3.4 3.4 0 00-3.47 3.154l-.005.084v.084c0 .91.36 1.581.649 2.003.13.19.266.362.354.47l.02.025c.093.116.155.193.217.28.165.22.399.566.467 1.454v2.762a37.092 37.092 0 01-3.284-7.11l-.015-.041-.015-.04c-.228-.598-.594-1.468-1.327-2.131-.855-.779-1.868-.994-2.788-.994h-4.275c-.932 0-2.055.217-2.893 1.1-.823.87-.917 1.913-.917 2.464v.252l.052.243a36.432 36.432 0 007.127 15.038 19.033 19.033 0 0014.8 8.797l.076.006h.08c1.36 0 2.78-.118 3.847-.829 1.438-.96 1.552-2.432 1.552-3.167v-2.134c.37.3.827.702 1.388 1.242a45.628 45.628 0 011.681 1.781l.248.274c.36.401.714.797 1.037 1.121.405.407.906.855 1.532 1.187.68.358 1.395.521 2.152.521h4.277c.902 0 2.194-.214 3.103-1.267.99-1.148.915-2.556.604-3.567l-.056-.181-.085-.171zm-10.725.199a49.026 49.026 0 00-1.794-1.902l-.006-.005c-2.544-2.453-3.73-2.878-4.57-2.878-.449 0-.942.048-1.263.45a1.444 1.444 0 00-.275.652 4.596 4.596 0 00-.06.833v3.845c0 .478-.08.679-.3.825-.295.197-.923.357-2.271.357A16.22 16.22 0 0135.96 52.4l-.015-.024-.019-.023a33.619 33.619 0 01-6.645-13.922c.008-.243.06-.392.146-.482.089-.093.304-.225.852-.225h4.275c.474 0 .722.105.9.265.199.184.375.493.585 1.044 1.05 3.086 2.467 5.974 3.812 8.094.67 1.062 1.33 1.945 1.927 2.57.298.31.589.57.868.753.268.176.574.317.889.317.165 0 .358-.019.544-.1a.981.981 0 00.468-.434c.194-.353.248-.872.248-1.553v-6.324c-.1-1.534-.563-2.398-1.013-3.012a10.453 10.453 0 00-.28-.361l-.025-.03a5.039 5.039 0 01-.229-.3.731.731 0 01-.16-.402.587.587 0 01.608-.529h6.74c.387 0 .517.094.582.182.094.122.173.375.173.908v8.49c0 1.009.465 1.691 1.14 1.691.776 0 1.336-.47 2.315-1.45l.017-.018.015-.017a35.642 35.642 0 005.325-8.854l.008-.022a1.373 1.373 0 011.387-.91h4.313c.585 0 .776.15.84.239.065.093.112.294 0 .688a52.904 52.904 0 01-5.68 9.75l-.015.022c-.215.332-.453.7-.487 1.12-.038.453.157.864.5 1.306.25.368.765.872 1.288 1.384l.05.049c.547.536 1.141 1.117 1.617 1.68l.014.013.013.015a18.548 18.548 0 013.496 4.849c.143.487.057.739-.056.868-.13.15-.42.29-.971.29h-4.279c-.291.008-.58-.06-.838-.196a3.673 3.673 0 01-.851-.683c-.268-.268-.559-.592-.915-.988l-.276-.307h-.002z" fill="#fff"/></svg>