<svg width="98" height="97" fill="none" xmlns="http://www.w3.org/2000/svg"><path opacity=".7" d="M97 48.5C97 74.724 75.52 96 49 96S1 74.724 1 48.5 22.48 1 49 1s48 21.276 48 47.5z" stroke="#fff" stroke-width="2"/><path d="M65.275 31.638a21.27 21.27 0 00-15.189-6.305c-11.83 0-21.471 9.642-21.471 21.472 0 3.791.996 7.475 2.86 10.725L28.44 68.666l11.375-2.99a21.478 21.478 0 0010.27 2.622c11.83 0 21.472-9.642 21.472-21.471 0-5.742-2.232-11.137-6.283-15.189zm-15.189 33.02a17.9 17.9 0 01-9.1-2.492l-.65-.39-6.76 1.777 1.799-6.586-.434-.672a17.906 17.906 0 01-2.73-9.49c0-9.837 8.017-17.854 17.854-17.854 4.766 0 9.251 1.864 12.61 5.244a17.731 17.731 0 015.221 12.632c.044 9.836-7.973 17.831-17.81 17.831zm9.794-13.346c-.542-.26-3.185-1.56-3.662-1.755-.498-.174-.845-.26-1.213.26-.369.541-1.387 1.755-1.69 2.101-.304.368-.629.412-1.17.13-.542-.26-2.275-.845-4.312-2.665-1.603-1.43-2.665-3.185-2.99-3.727-.303-.541-.043-.823.238-1.105.239-.238.542-.628.802-.931.26-.303.368-.542.542-.889.173-.368.086-.671-.044-.931s-1.213-2.903-1.646-3.987c-.434-1.04-.889-.91-1.214-.931h-1.04c-.368 0-.931.13-1.43.671-.476.542-1.863 1.842-1.863 4.485 0 2.644 1.928 5.2 2.188 5.547.26.368 3.792 5.785 9.165 8.103 1.279.563 2.275.889 3.055 1.127 1.279.412 2.449.346 3.38.217 1.04-.152 3.185-1.3 3.619-2.557.455-1.257.455-2.319.303-2.557-.152-.238-.477-.346-1.018-.606z" fill="#fff"/></svg>