<svg width="305" height="68" fill="none" xmlns="http://www.w3.org/2000/svg"><path d="M90.144 27.54h-4.292V8.783h4.292l5.761 7.877 5.422-7.877h4.011V27.54h-4.293V15.583l-5.196 7.31h-.621L90.03 15.64v11.9h.113zm18.752-9.407c0-2.776.904-5.043 2.768-6.913 1.864-1.87 4.236-2.777 7.173-2.777 2.937 0 5.309.907 7.117 2.664 1.864 1.756 2.824 4.136 2.824 7.026 0 2.834-.96 5.157-2.824 6.97-1.864 1.814-4.236 2.72-7.117 2.72-2.88 0-5.309-.906-7.173-2.663-1.864-1.757-2.768-4.08-2.768-7.027zm4.519 0c0 1.587.508 2.947 1.581 4.024 1.017 1.076 2.316 1.643 3.841 1.643 1.695 0 3.05-.51 3.954-1.587.96-1.076 1.412-2.436 1.412-4.08 0-1.7-.508-3.06-1.525-4.08-1.073-1.076-2.316-1.586-3.841-1.586-1.581 0-2.88.51-3.841 1.586-1.073 1.077-1.581 2.437-1.581 4.08zm20.163 12.58h-4.01v-7.197h1.977c.508-.736 1.073-2.04 1.638-3.91.565-1.926.904-4.306 1.073-7.026l.17-3.74h12.2v14.733h2.541v7.253h-4.01v-3.23h-11.579v3.117zm5.027-17.907l-.282 3.174a22.597 22.597 0 01-.847 4.59c-.452 1.53-.791 2.493-1.13 2.947h6.1v-10.71h-3.841zm23.948-4.023h4.293l-6.269 14.28c-.678 1.53-1.412 2.664-2.316 3.344-.904.736-1.921 1.076-3.163 1.076-.508 0-1.073-.056-1.582-.227-.564-.17-.96-.34-1.242-.566l1.468-3.627c.452.284.904.454 1.299.454.678 0 1.13-.227 1.412-.737l.226-.567-8.02-13.43h4.857l5.253 9.18 3.784-9.18zM183 27.54h-4.293V12.807h-4.123l-.395 3.513c-.396 3.23-.904 5.723-1.582 7.48-.678 1.7-1.525 2.833-2.485 3.343-.96.51-2.203.623-3.784.397l.056-4.307c.396.057.734.057.96 0 .283-.056.565-.283.848-.68.282-.396.564-.963.847-1.7.565-1.587.96-4.363 1.242-8.33l.283-3.74H183V27.54zm4.801-18.757h4.292v5.837a14.873 14.873 0 011.638-.113c2.316 0 4.067.566 5.309 1.643 1.243 1.077 1.808 2.663 1.808 4.647 0 2.096-.678 3.683-2.09 4.93-1.412 1.19-3.332 1.813-5.874 1.813h-5.027V8.783h-.056zm5.535 9.804c-.17 0-.621.056-1.299.113v4.76c.565.056.96.113 1.242.113 1.977 0 2.937-.85 2.937-2.607.057-1.586-.903-2.38-2.88-2.38zm26.263 8.953h-4.292v-7.537h-6.778v7.537h-4.293V8.783h4.293v7.197h6.778V8.783h4.292V27.54zM224.4 8.783h4.293v5.837a14.856 14.856 0 011.638-.113c2.203 0 3.897.566 5.027 1.643 1.186 1.133 1.751 2.663 1.751 4.647 0 2.04-.678 3.683-2.034 4.873-1.355 1.19-3.276 1.813-5.704 1.813h-5.027v-18.7h.056zm5.535 9.804c-.169 0-.621.056-1.299.113v4.76c.565.056.961.113 1.243.113 1.751 0 2.655-.85 2.655-2.607 0-.793-.226-1.36-.678-1.813-.396-.396-1.073-.566-1.921-.566zm13.274 8.953h-4.293V8.783h4.293V27.54zm-82.915 13.203h4.292v5.837a14.916 14.916 0 011.638-.113c2.203 0 3.898.566 5.027 1.643 1.186 1.133 1.751 2.663 1.751 4.647 0 2.04-.678 3.683-2.033 4.873-1.356 1.19-3.276 1.813-5.705 1.813h-5.027v-18.7h.057zm5.535 9.747c-.169 0-.621.056-1.299.113v4.76c.565.057.96.114 1.242.114 1.751 0 2.655-.85 2.655-2.607 0-.793-.226-1.36-.678-1.813-.452-.34-1.073-.567-1.92-.567zm13.273 9.01h-4.292V40.743h4.292V59.5zm80.261-31.96H248.01V8.783h11.07v4.024h-6.778v3.286h5.988v4.023h-5.988v3.4h7.061v4.024zM100.989 59.67h-4.293V44.937h-6.552V59.67h-4.292V40.914h15.08V59.67h.057zm6.664 0h-4.293l7.738-18.756h3.841l7.738 18.756h-4.575l-1.525-3.91h-7.399l-1.525 3.91zm7.343-7.99l-2.09-5.326-2.09 5.326h4.18zm14.403 1.587v6.347h-4.293v-18.7h5.705c2.655 0 4.575.566 5.761 1.756 1.186 1.134 1.808 2.607 1.808 4.42 0 1.757-.622 3.23-1.921 4.477-1.242 1.19-2.937 1.813-5.027 1.813-.903 0-1.581-.056-2.033-.113zm1.864-8.387h-1.864v4.307c.734.113 1.412.113 1.92.113.735 0 1.356-.17 1.808-.566.452-.397.734-.964.734-1.7 0-1.417-.904-2.154-2.598-2.154zm62.751 14.79h-11.353V40.914h11.071v4.023h-6.778v3.287h5.987v4.023h-5.987v3.4h7.06v4.023zm10.618-.17V40.743h11.24v4.023h-7.004v2.947c.508-.113 1.243-.17 2.146-.17 1.808 0 3.276.51 4.349 1.587 1.13 1.076 1.695 2.436 1.695 4.193 0 1.983-.622 3.514-1.921 4.59-1.299 1.077-3.05 1.644-5.365 1.644-.961 0-1.977 0-3.107-.057h-2.033zm6.043-7.934c-.564 0-1.129.057-1.807.17v3.74c.847.114 1.412.114 1.581.114 1.525 0 2.316-.623 2.316-1.927 0-.623-.169-1.133-.508-1.53-.339-.34-.847-.567-1.582-.567zm12.314 7.934h-4.293l7.738-18.757h3.841l7.738 18.757h-4.575l-1.525-3.91h-7.399l-1.525 3.91zm7.342-7.99l-2.089-5.327-2.09 5.327h4.179zm25.417 7.99h-4.293v-7.593h-6.778V59.5h-4.292V40.743h4.292v7.197h6.778v-7.197h4.293V59.5zm-99.351 0h-4.293v-7.593h-6.777V59.5h-4.293V40.743h4.293v7.197h6.777v-7.197h4.293V59.5zm116.182-11.673L264.333 59.5h-3.728V40.743h4.293V52.36l8.246-11.617h3.728V59.5h-4.293V47.827zM75.347 8.5H20.673v.057H7.06v50.83h70.038V8.5h-1.751zm-9.15 1.7v12.41h-2.26V10.2h2.26zM50.269 51.227V24.933h15.984v26.294H50.27zM61.679 10.2v12.41h-2.26V10.2h2.26zm-4.576 0v12.41h-2.26V10.2h2.26zm-4.575 0v12.41h-2.26V10.2h2.26zM18.3 22.61v-7.593h11.41v7.593H18.3zm9.15-9.917l.057-2.55h2.26v2.55H27.45zM25.191 10.2l-.056 2.55h-2.26l.057-2.55h2.26zm-4.575 0l-.056 2.55H18.3V10.2h2.316zM9.206 57.743V10.2h2.26v47.543h-2.26zm4.576 0V10.2h2.26v47.543h-2.26zm4.518 0v-32.81h2.26v32.81H18.3zm4.575 0v-32.81h2.26v32.81h-2.26zm4.575 0v-32.81h2.26v32.81h-2.26zm4.575 0V10.2h2.26v47.543h-2.26zm4.519 0V10.2h2.26v47.543h-2.26zm4.575 0V10.2h2.26v47.543h-2.26zm4.575 0V10.2h2.26v47.543h-2.26zm4.575 0V53.55h2.26v4.193h-2.26zm4.518 0V53.55h2.26v4.193h-2.26zm4.575 0V53.55h2.26v4.193h-2.26zm4.575 0V53.55h2.26v4.193h-2.26zm4.575 0V10.2h2.26v47.543h-2.26zm4.519 0V10.2h2.26v47.543h-2.26z" fill="#fff"/></svg>